<svg xmlns="http://www.w3.org/2000/svg" version="1.1" xmlns:xlink="http://www.w3.org/1999/xlink" xmlns:svgjs="http://svgjs.dev/svgjs" viewBox="0 0 800 800" opacity="0.1" width="800" height="800"><g stroke-width="0.5" stroke="#2196f3ff" fill="none"><rect width="66.66666666666667" height="100" x="0" y="0"></rect><rect width="66.66666666666667" height="100" x="66.66666666666667" y="0"></rect><rect width="66.66666666666667" height="100" x="133.33333333333334" y="0"></rect><rect width="66.66666666666667" height="100" x="200" y="0"></rect><rect width="66.66666666666667" height="100" x="266.6666666666667" y="0"></rect><rect width="66.66666666666667" height="100" x="333.33333333333337" y="0"></rect><rect width="66.66666666666667" height="100" x="400.00000000000006" y="0"></rect><rect width="66.66666666666667" height="100" x="466.66666666666674" y="0"></rect><rect width="66.66666666666667" height="100" x="533.3333333333334" y="0"></rect><rect width="66.66666666666667" height="100" x="600" y="0"></rect><rect width="66.66666666666667" height="100" x="666.6666666666666" y="0"></rect><rect width="66.66666666666667" height="100" x="733.3333333333333" y="0"></rect><rect width="66.66666666666667" height="100" x="799.9999999999999" y="0"></rect><rect width="66.66666666666667" height="100" x="0" y="100"></rect><rect width="66.66666666666667" height="100" x="66.66666666666667" y="100"></rect><rect width="66.66666666666667" height="100" x="133.33333333333334" y="100"></rect><rect width="66.66666666666667" height="100" x="200" y="100"></rect><rect width="66.66666666666667" height="100" x="266.6666666666667" y="100"></rect><rect width="66.66666666666667" height="100" x="333.33333333333337" y="100"></rect><rect width="66.66666666666667" height="100" x="400.00000000000006" y="100"></rect><rect width="66.66666666666667" height="100" x="466.66666666666674" y="100"></rect><rect width="66.66666666666667" height="100" x="533.3333333333334" y="100"></rect><rect width="66.66666666666667" height="100" x="600" y="100"></rect><rect width="66.66666666666667" height="100" x="666.6666666666666" y="100"></rect><rect width="66.66666666666667" height="100" x="733.3333333333333" y="100"></rect><rect width="66.66666666666667" height="100" x="799.9999999999999" y="100"></rect><rect width="66.66666666666667" height="100" x="0" y="200"></rect><rect width="66.66666666666667" height="100" x="66.66666666666667" y="200"></rect><rect width="66.66666666666667" height="100" x="133.33333333333334" y="200"></rect><rect width="66.66666666666667" height="100" x="200" y="200"></rect><rect width="66.66666666666667" height="100" x="266.6666666666667" y="200"></rect><rect width="66.66666666666667" height="100" x="333.33333333333337" y="200"></rect><rect width="66.66666666666667" height="100" x="400.00000000000006" y="200"></rect><rect width="66.66666666666667" height="100" x="466.66666666666674" y="200"></rect><rect width="66.66666666666667" height="100" x="533.3333333333334" y="200"></rect><rect width="66.66666666666667" height="100" x="600" y="200"></rect><rect width="66.66666666666667" height="100" x="666.6666666666666" y="200"></rect><rect width="66.66666666666667" height="100" x="733.3333333333333" y="200"></rect><rect width="66.66666666666667" height="100" x="799.9999999999999" y="200"></rect><rect width="66.66666666666667" height="100" x="0" y="300"></rect><rect width="66.66666666666667" height="100" x="66.66666666666667" y="300"></rect><rect width="66.66666666666667" height="100" x="133.33333333333334" y="300"></rect><rect width="66.66666666666667" height="100" x="200" y="300"></rect><rect width="66.66666666666667" height="100" x="266.6666666666667" y="300"></rect><rect width="66.66666666666667" height="100" x="333.33333333333337" y="300"></rect><rect width="66.66666666666667" height="100" x="400.00000000000006" y="300"></rect><rect width="66.66666666666667" height="100" x="466.66666666666674" y="300"></rect><rect width="66.66666666666667" height="100" x="533.3333333333334" y="300"></rect><rect width="66.66666666666667" height="100" x="600" y="300"></rect><rect width="66.66666666666667" height="100" x="666.6666666666666" y="300"></rect><rect width="66.66666666666667" height="100" x="733.3333333333333" y="300"></rect><rect width="66.66666666666667" height="100" x="799.9999999999999" y="300"></rect><rect width="66.66666666666667" height="100" x="0" y="400"></rect><rect width="66.66666666666667" height="100" x="66.66666666666667" y="400"></rect><rect width="66.66666666666667" height="100" x="133.33333333333334" y="400"></rect><rect width="66.66666666666667" height="100" x="200" y="400"></rect><rect width="66.66666666666667" height="100" x="266.6666666666667" y="400"></rect><rect width="66.66666666666667" height="100" x="333.33333333333337" y="400"></rect><rect width="66.66666666666667" height="100" x="400.00000000000006" y="400"></rect><rect width="66.66666666666667" height="100" x="466.66666666666674" y="400"></rect><rect width="66.66666666666667" height="100" x="533.3333333333334" y="400"></rect><rect width="66.66666666666667" height="100" x="600" y="400"></rect><rect width="66.66666666666667" height="100" x="666.6666666666666" y="400"></rect><rect width="66.66666666666667" height="100" x="733.3333333333333" y="400"></rect><rect width="66.66666666666667" height="100" x="799.9999999999999" y="400"></rect><rect width="66.66666666666667" height="100" x="0" y="500"></rect><rect width="66.66666666666667" height="100" x="66.66666666666667" y="500"></rect><rect width="66.66666666666667" height="100" x="133.33333333333334" y="500"></rect><rect width="66.66666666666667" height="100" x="200" y="500"></rect><rect width="66.66666666666667" height="100" x="266.6666666666667" y="500"></rect><rect width="66.66666666666667" height="100" x="333.33333333333337" y="500"></rect><rect width="66.66666666666667" height="100" x="400.00000000000006" y="500"></rect><rect width="66.66666666666667" height="100" x="466.66666666666674" y="500"></rect><rect width="66.66666666666667" height="100" x="533.3333333333334" y="500"></rect><rect width="66.66666666666667" height="100" x="600" y="500"></rect><rect width="66.66666666666667" height="100" x="666.6666666666666" y="500"></rect><rect width="66.66666666666667" height="100" x="733.3333333333333" y="500"></rect><rect width="66.66666666666667" height="100" x="799.9999999999999" y="500"></rect><rect width="66.66666666666667" height="100" x="0" y="600"></rect><rect width="66.66666666666667" height="100" x="66.66666666666667" y="600"></rect><rect width="66.66666666666667" height="100" x="133.33333333333334" y="600"></rect><rect width="66.66666666666667" height="100" x="200" y="600"></rect><rect width="66.66666666666667" height="100" x="266.6666666666667" y="600"></rect><rect width="66.66666666666667" height="100" x="333.33333333333337" y="600"></rect><rect width="66.66666666666667" height="100" x="400.00000000000006" y="600"></rect><rect width="66.66666666666667" height="100" x="466.66666666666674" y="600"></rect><rect width="66.66666666666667" height="100" x="533.3333333333334" y="600"></rect><rect width="66.66666666666667" height="100" x="600" y="600"></rect><rect width="66.66666666666667" height="100" x="666.6666666666666" y="600"></rect><rect width="66.66666666666667" height="100" x="733.3333333333333" y="600"></rect><rect width="66.66666666666667" height="100" x="799.9999999999999" y="600"></rect><rect width="66.66666666666667" height="100" x="0" y="700"></rect><rect width="66.66666666666667" height="100" x="66.66666666666667" y="700"></rect><rect width="66.66666666666667" height="100" x="133.33333333333334" y="700"></rect><rect width="66.66666666666667" height="100" x="200" y="700"></rect><rect width="66.66666666666667" height="100" x="266.6666666666667" y="700"></rect><rect width="66.66666666666667" height="100" x="333.33333333333337" y="700"></rect><rect width="66.66666666666667" height="100" x="400.00000000000006" y="700"></rect><rect width="66.66666666666667" height="100" x="466.66666666666674" y="700"></rect><rect width="66.66666666666667" height="100" x="533.3333333333334" y="700"></rect><rect width="66.66666666666667" height="100" x="600" y="700"></rect><rect width="66.66666666666667" height="100" x="666.6666666666666" y="700"></rect><rect width="66.66666666666667" height="100" x="733.3333333333333" y="700"></rect><rect width="66.66666666666667" height="100" x="799.9999999999999" y="700"></rect><rect width="66.66666666666667" height="100" x="0" y="800"></rect><rect width="66.66666666666667" height="100" x="66.66666666666667" y="800"></rect><rect width="66.66666666666667" height="100" x="133.33333333333334" y="800"></rect><rect width="66.66666666666667" height="100" x="200" y="800"></rect><rect width="66.66666666666667" height="100" x="266.6666666666667" y="800"></rect><rect width="66.66666666666667" height="100" x="333.33333333333337" y="800"></rect><rect width="66.66666666666667" height="100" x="400.00000000000006" y="800"></rect><rect width="66.66666666666667" height="100" x="466.66666666666674" y="800"></rect><rect width="66.66666666666667" height="100" x="533.3333333333334" y="800"></rect><rect width="66.66666666666667" height="100" x="600" y="800"></rect><rect width="66.66666666666667" height="100" x="666.6666666666666" y="800"></rect><rect width="66.66666666666667" height="100" x="733.3333333333333" y="800"></rect><rect width="66.66666666666667" height="100" x="799.9999999999999" y="800"></rect></g></svg>